<svg xmlns="http://www.w3.org/2000/svg" viewBox="0 0 373.88 173.76"><defs><style>.cls-1{font-size:70px;font-family:Bondrians;}.cls-1,.cls-4{fill:#fbdd11;}.cls-2{letter-spacing:0.47em;}.cls-3{letter-spacing:0.46em;}.cls-5{fill:#4cbf4b;}.cls-6{fill:#7c1ced;}</style></defs><g id="katman_2" data-name="katman 2"><g id="katman_1-2" data-name="katman 1"><text class="cls-1" transform="translate(0 138.62)"><tspan class="cls-2">P</tspan><tspan class="cls-3" x="60.7" y="0">r</tspan><tspan class="cls-2" x="117.7" y="0">emiu</tspan><tspan x="339.58" y="0">m</tspan></text><path class="cls-4" d="M305.62,0a19.13,19.13,0,0,0-10.57,3.55,14.29,14.29,0,0,0-5.14,9.74,18.74,18.74,0,0,0-10-9.81c-1.66-.72-10-2.9-18.4,6.43-2.58,2.88,4.35,4.47,6,3.78,4-1.64,9.53-3.22,11.81-1.92,1.18.67,4.11,8.84,8.23,11.15l.36.19H263.45a15.54,15.54,0,0,0-15.58,15.51V74.4A15.54,15.54,0,0,0,263.38,90h62.87a15.53,15.53,0,0,0,15.57-15.51V38.68a15.53,15.53,0,0,0-15.5-15.57H294.25c1.44-1,2.8-2.75,2.95-3.66.7-4.25,2.28-9.79,4.59-11,1.19-.65,9.68,1.18,13.81-1.11a4.09,4.09,0,0,0,2.24-2.16c.32-1.1-5-5.26-12.22-5.13Zm-42.3,28.39h63.05a10.14,10.14,0,0,1,10.17,10.12v36a10.14,10.14,0,0,1-10.13,10.17H263.32a10.15,10.15,0,0,1-10.17-10.13v-36a10.14,10.14,0,0,1,10.13-10.16Z"/><path class="cls-5" d="M79.09,20.9a5.19,5.19,0,0,1-1,3.46A3.71,3.71,0,0,1,75,25.51l-.69,5.6-.85,6Q66.66,88,45,88q-6.36,0-10-3.61a12.39,12.39,0,0,1-3.54-9q0-9.75,8.29-17.2T61.58,45.7c.57-3.64,1-6.88,1.31-9.75l1.38-11.59a85.88,85.88,0,0,0-8.6-.46Q45,23.9,39.94,26t-5.07,6.76a10.16,10.16,0,0,0,1.54,5,3.12,3.12,0,0,1,.46,1.61,3.71,3.71,0,0,1-1.69,2.91,5.7,5.7,0,0,1-3.53,1.23,4.18,4.18,0,0,1-3.76-2.07,15.53,15.53,0,0,1-2.15-8.22q0-18.42,32.24-18.42A69.59,69.59,0,0,1,74.71,16.6q4.38,1.08,4.38,4.3ZM46,79.78q3.77,0,7.53-5.68t6.6-19.88Q41.4,62.43,41.4,74.33a6.1,6.1,0,0,0,1.23,4.06A4.24,4.24,0,0,0,46,79.78Zm39.77.38A6.72,6.72,0,0,1,80.09,77a14.1,14.1,0,0,1-2.15-8,66.58,66.58,0,0,1,.77-10.52,66.48,66.48,0,0,1,2.53-10.2A6.51,6.51,0,0,1,83.39,45a7.62,7.62,0,0,1,4.38-1,3.65,3.65,0,0,1,2.3.53,1.93,1.93,0,0,1,.69,1.62,32.21,32.21,0,0,1-.84,4.14c-.51,1.89-.92,3.61-1.23,5.14a72.83,72.83,0,0,0-1.53,10.75,5,5,0,0,0,.38,2.3,1.34,1.34,0,0,0,1.23.62c.76,0,1.71-.77,2.84-2.31a31.72,31.72,0,0,0,3.68-7A88.83,88.83,0,0,0,99.13,48.3,6.2,6.2,0,0,1,101,45a6.28,6.28,0,0,1,3.84-1,4.69,4.69,0,0,1,2.46.47A1.58,1.58,0,0,1,108,46q0,1.92-1.92,10.52-2.16,9.82-2.15,12.12A3.86,3.86,0,0,0,104.5,71a2,2,0,0,0,1.61.76,5.87,5.87,0,0,0,3.61-1.84,61.47,61.47,0,0,0,5.68-6.14,2.69,2.69,0,0,1,2.07-1.07,1.68,1.68,0,0,1,1.54.92,4.51,4.51,0,0,1,.61,2.53,7.07,7.07,0,0,1-1.45,4.76A33.54,33.54,0,0,1,111,77.55a14.74,14.74,0,0,1-8.6,2.61A6,6,0,0,1,97,77.32q-1.7-2.85-1.69-8a18.26,18.26,0,0,1-3.91,8.06,7.66,7.66,0,0,1-5.61,2.77Z"/><path class="cls-5" d="M118.92,80.16a4.25,4.25,0,0,1-4.14-3.07c-.77-2-1.15-5.32-1.15-9.83a62.22,62.22,0,0,1,2.84-19,5.68,5.68,0,0,1,2.22-3.23A8,8,0,0,1,123.15,44a4.26,4.26,0,0,1,2.14.38,1.59,1.59,0,0,1,.62,1.46,29.07,29.07,0,0,1-1.15,5.53q-.77,3.06-1.23,5.37a55.5,55.5,0,0,0-.77,5.68,43.61,43.61,0,0,1,5.68-10.75,22.75,22.75,0,0,1,6.14-5.91A11.42,11.42,0,0,1,140.19,44q5,0,5,5a62,62,0,0,1-1.68,10.82A52.35,52.35,0,0,0,142,68.65c0,2,.74,3.07,2.22,3.07a5.9,5.9,0,0,0,3.61-1.85,60.29,60.29,0,0,0,5.68-6.14,2.73,2.73,0,0,1,2.08-1.07,1.68,1.68,0,0,1,1.53.92,4.51,4.51,0,0,1,.61,2.53,7.05,7.05,0,0,1-1.45,4.76,33.54,33.54,0,0,1-7.14,6.68,14.71,14.71,0,0,1-8.6,2.61,7.51,7.51,0,0,1-5.91-2.23q-2-2.3-2-6.6a47.63,47.63,0,0,1,1.08-7.67,40.45,40.45,0,0,0,1-6.68c0-.82-.28-1.23-.85-1.23s-1.61.87-2.84,2.61a44.13,44.13,0,0,0-3.68,6.76,54.08,54.08,0,0,0-3,8.9,12,12,0,0,1-2,4.91,4.37,4.37,0,0,1-3.45,1.23Z"/><path class="cls-5" d="M190.85,62.81a1.69,1.69,0,0,1,1.54,1,4.2,4.2,0,0,1,.61,2.38,5.82,5.82,0,0,1-.54,2.76,4.94,4.94,0,0,1-1.68,1.77l-9.68,6.6-4.91,3.3q-2.91,15.88-7.67,24.95t-12,9.13a8.61,8.61,0,0,1-6.37-2.46,8.33,8.33,0,0,1-2.45-6.29q0-5.45,4.3-11.74t16.11-15.36l.46-3a9.15,9.15,0,0,1-3.45,3.23A9,9,0,0,1,161,80.16a9.33,9.33,0,0,1-7.6-3.45,13.8,13.8,0,0,1-2.84-9.06,24.62,24.62,0,0,1,2.84-11.59,23.91,23.91,0,0,1,7.52-8.83A17.09,17.09,0,0,1,171,43.85a2.72,2.72,0,0,1,2.23.7,4.81,4.81,0,0,1,1,2.3,16.12,16.12,0,0,1,3.37-.31,4.41,4.41,0,0,1,2.69.62,2.45,2.45,0,0,1,.85,2.22,10.93,10.93,0,0,1-.08,1.46q-.32,2.38-1.92,12L178.42,67l-.69,4.6q5.91-4.61,11.36-8.13a3.47,3.47,0,0,1,1.76-.62Zm-27.09,9.6c1.17,0,2.3-.72,3.37-2.15a14.24,14.24,0,0,0,2.31-6.14L171.89,51a9,9,0,0,0-5.83,2.46,16.17,16.17,0,0,0-4.3,6.14,20.87,20.87,0,0,0-1.61,8.13,5.66,5.66,0,0,0,.92,3.54,3.41,3.41,0,0,0,2.69,1.15Zm-6.37,34.84q1.92,0,4.3-4.6T166.37,88a44.73,44.73,0,0,0-8.52,9.13q-2.61,4.08-2.61,7.14a4.42,4.42,0,0,0,.46,2.15,1.87,1.87,0,0,0,1.69.85Z"/><path class="cls-5" d="M217.37,62.66a1.7,1.7,0,0,1,1.54.92,4.51,4.51,0,0,1,.61,2.53,7,7,0,0,1-1.46,4.76,32.68,32.68,0,0,1-7.21,6.68,15.21,15.21,0,0,1-8.75,2.61A10.75,10.75,0,0,1,192,74q-3.22-6.13-3.22-15.89a110.63,110.63,0,0,1,2.38-21.34,74.15,74.15,0,0,1,7.14-20.57q4.75-8.59,11.28-8.6a6.42,6.42,0,0,1,5.76,3.46q2.15,3.38,2.15,9.75,0,9.14-5.07,21.18a117.38,117.38,0,0,1-13.74,23.87,9.17,9.17,0,0,0,1.77,4.53,4.2,4.2,0,0,0,3.22,1.31A9,9,0,0,0,209.24,70a45.14,45.14,0,0,0,6.06-6.21,2.71,2.71,0,0,1,2.07-1.08Zm-9.44-47.44c-1.18,0-2.51,2.13-4,6.37A104.56,104.56,0,0,0,200,37.41a114.83,114.83,0,0,0-1.85,18.11,99.06,99.06,0,0,0,8.68-18,49.64,49.64,0,0,0,3.22-16.5q0-5.83-2.15-5.84Z"/><path class="cls-5" d="M229.51,44a15.73,15.73,0,0,0-9,2.68,18.34,18.34,0,0,0-6.14,7.3,22,22,0,0,0-2.22,9.82q0,7.53,4.07,12t11.43,4.38a23.82,23.82,0,0,0,8.3-1.74c1.52-.52,7.26-2.3,11.9-4.12V65.49c-8.06,3.72-11.56,5.18-13.62,5.93a15.46,15.46,0,0,1-5.42,1.06A6.43,6.43,0,0,1,222.61,69q9.13-2.22,12.89-6a12.49,12.49,0,0,0,3.84-9.14,9.5,9.5,0,0,0-2.69-7.14A9.65,9.65,0,0,0,229.51,44Zm-1.3,7.52a2.66,2.66,0,0,1,2.15.92,3.11,3.11,0,0,1,.84,2.3,6.32,6.32,0,0,1-2.61,5A17.47,17.47,0,0,1,221.45,63v-.16a15.61,15.61,0,0,1,1.92-8c1.33-2.2,2.95-3.3,4.84-3.3Z"/><path class="cls-6" d="M288.92,40.75q-4.34.2-10.58.67l.33,15.45-.85,23.45-8.29.67-.44-39.23c-2.16,0-4.15.12-6,.22s-3.34.15-4.6.15l.67-8.07A225.48,225.48,0,0,1,288,32.39l1,8.36ZM301.77,61l-6.39-26.19,9.44-2.71,5.76,28.53L312.1,72.7l2.15-.22L318,52.83l3.57-20.73,9.58,2.41-1.37,6L329,44.21l-6,23.88L321.39,74l-2,6.32-6.61.41q-3.19.18-6.39.18L301.77,61Z"/><path class="cls-4" d="M353.19,27.06a3.1,3.1,0,0,0-4.9-3.79,3.15,3.15,0,0,0-.64,2.08l-4.32.36,1.92-9.16,3.6-.76L348.53,9l-6.66,1.4.17,3.51-8.4,4.26L332.91,14a3.17,3.17,0,0,0,1.84-1.14,3.1,3.1,0,1,0-4.62.31l-6.19,9.57,17.52,13.53,7.7-8.41A3.1,3.1,0,0,0,353.19,27.06Z"/></g></g></svg>